<svg xmlns="http://www.w3.org/2000/svg" viewBox="0 0 700 300" width="700" height="300">
  <defs>
    <marker id="arrow1" markerWidth="10" markerHeight="7" refX="10" refY="3.5" orient="auto">
      <polygon points="0 0, 10 3.5, 0 7" fill="#333"/>
    </marker>
    <marker id="arrow1blue" markerWidth="10" markerHeight="7" refX="10" refY="3.5" orient="auto">
      <polygon points="0 0, 10 3.5, 0 7" fill="#3498db"/>
    </marker>
  </defs>

  <!-- Title -->
  <text x="350" y="22" text-anchor="middle" font-family="Arial, sans-serif" font-size="14" font-weight="bold" fill="#333">ASR Pipeline: Audio to Text</text>

  <!-- Waveform box -->
  <rect x="15" y="70" width="95" height="55" rx="8" fill="#3498db" fill-opacity="0.12" stroke="#3498db" stroke-width="1.5"/>
  <text x="62" y="92" text-anchor="middle" font-family="Arial, sans-serif" font-size="10" font-weight="bold" fill="#3498db">Waveform</text>
  <!-- Mini waveform drawing -->
  <polyline points="25,108 33,100 38,115 43,98 48,112 53,100 58,110 63,97 68,113 73,102 78,108 83,97 88,110 95,105" fill="none" stroke="#3498db" stroke-width="1" stroke-opacity="0.6"/>

  <!-- Arrow 1 -->
  <line x1="115" y1="97" x2="142" y2="97" stroke="#333" stroke-width="1.5" marker-end="url(#arrow1)"/>

  <!-- Feature Extraction box -->
  <rect x="148" y="70" width="110" height="55" rx="8" fill="#e74c3c" fill-opacity="0.12" stroke="#e74c3c" stroke-width="1.5"/>
  <text x="203" y="90" text-anchor="middle" font-family="Arial, sans-serif" font-size="10" font-weight="bold" fill="#e74c3c">Feature</text>
  <text x="203" y="102" text-anchor="middle" font-family="Arial, sans-serif" font-size="10" font-weight="bold" fill="#e74c3c">Extraction</text>
  <text x="203" y="117" text-anchor="middle" font-family="Arial, sans-serif" font-size="8" fill="#666">(MFCCs / Mel)</text>

  <!-- Arrow 2 -->
  <line x1="263" y1="97" x2="290" y2="97" stroke="#333" stroke-width="1.5" marker-end="url(#arrow1)"/>

  <!-- Acoustic Model box -->
  <rect x="296" y="70" width="110" height="55" rx="8" fill="#27ae60" fill-opacity="0.12" stroke="#27ae60" stroke-width="1.5"/>
  <text x="351" y="92" text-anchor="middle" font-family="Arial, sans-serif" font-size="10" font-weight="bold" fill="#27ae60">Acoustic</text>
  <text x="351" y="105" text-anchor="middle" font-family="Arial, sans-serif" font-size="10" font-weight="bold" fill="#27ae60">Model</text>

  <!-- Arrow 3 -->
  <line x1="411" y1="97" x2="438" y2="97" stroke="#333" stroke-width="1.5" marker-end="url(#arrow1)"/>

  <!-- Decoder box -->
  <rect x="444" y="70" width="100" height="55" rx="8" fill="#f39c12" fill-opacity="0.12" stroke="#f39c12" stroke-width="1.5"/>
  <text x="494" y="100" text-anchor="middle" font-family="Arial, sans-serif" font-size="10" font-weight="bold" fill="#f39c12">Decoder</text>

  <!-- Arrow 4 -->
  <line x1="549" y1="97" x2="576" y2="97" stroke="#333" stroke-width="1.5" marker-end="url(#arrow1)"/>

  <!-- Text output box -->
  <rect x="582" y="70" width="100" height="55" rx="8" fill="#9b59b6" fill-opacity="0.12" stroke="#9b59b6" stroke-width="1.5"/>
  <text x="632" y="95" text-anchor="middle" font-family="Arial, sans-serif" font-size="10" font-weight="bold" fill="#9b59b6">Text</text>
  <text x="632" y="109" text-anchor="middle" font-family="Arial, sans-serif" font-size="9" fill="#666">"hello world"</text>

  <!-- Language Model box below decoder -->
  <rect x="434" y="180" width="120" height="45" rx="8" fill="#3498db" fill-opacity="0.12" stroke="#3498db" stroke-width="1.5"/>
  <text x="494" y="200" text-anchor="middle" font-family="Arial, sans-serif" font-size="10" font-weight="bold" fill="#3498db">Language</text>
  <text x="494" y="213" text-anchor="middle" font-family="Arial, sans-serif" font-size="10" font-weight="bold" fill="#3498db">Model</text>

  <!-- Arrow from Language Model to Decoder -->
  <line x1="494" y1="178" x2="494" y2="130" stroke="#3498db" stroke-width="1.5" marker-end="url(#arrow1blue)"/>
  <text x="510" y="160" text-anchor="start" font-family="Arial, sans-serif" font-size="8" fill="#3498db">P(word seq)</text>

  <!-- Note box -->
  <rect x="40" y="248" width="620" height="38" rx="6" fill="#f5f5f5" stroke="#333" stroke-width="1"/>
  <text x="350" y="264" text-anchor="middle" font-family="Arial, sans-serif" font-size="9" fill="#333">Traditional pipeline: each component trained separately.</text>
  <text x="350" y="278" text-anchor="middle" font-family="Arial, sans-serif" font-size="9" fill="#333">End-to-end: single neural network replaces the entire pipeline.</text>
</svg>