<svg xmlns="http://www.w3.org/2000/svg" viewBox="0 0 800 250" width="800" height="250" font-family="Arial, sans-serif">
  <!-- Title -->
  <text x="400" y="22" text-anchor="middle" font-size="14" font-weight="bold" fill="#333">Unified Vision-Language Token Sequence</text>

  <defs>
    <marker id="uArr" markerWidth="8" markerHeight="6" refX="8" refY="3" orient="auto">
      <path d="M0,0 L8,3 L0,6 Z" fill="#666"/>
    </marker>
  </defs>

  <!-- Token sequence -->
  <g transform="translate(30, 50)">
    <!-- Text tokens (red) -->
    <rect x="0" y="0" width="44" height="36" rx="4" fill="#e74c3c" fill-opacity="0.15" stroke="#e74c3c" stroke-width="1.2"/>
    <text x="22" y="22" text-anchor="middle" font-size="10" font-weight="bold" fill="#e74c3c">The</text>

    <rect x="50" y="0" width="44" height="36" rx="4" fill="#e74c3c" fill-opacity="0.15" stroke="#e74c3c" stroke-width="1.2"/>
    <text x="72" y="22" text-anchor="middle" font-size="10" font-weight="bold" fill="#e74c3c">cat</text>

    <rect x="100" y="0" width="44" height="36" rx="4" fill="#e74c3c" fill-opacity="0.15" stroke="#e74c3c" stroke-width="1.2"/>
    <text x="122" y="22" text-anchor="middle" font-size="10" font-weight="bold" fill="#e74c3c">is</text>

    <!-- Separator bracket -->
    <text x="156" y="22" text-anchor="middle" font-size="12" fill="#ccc">[</text>

    <!-- Image tokens (blue) -->
    <rect x="166" y="0" width="44" height="36" rx="4" fill="#3498db" fill-opacity="0.15" stroke="#3498db" stroke-width="1.2"/>
    <text x="188" y="22" text-anchor="middle" font-size="10" font-weight="bold" fill="#3498db">42</text>

    <rect x="216" y="0" width="44" height="36" rx="4" fill="#3498db" fill-opacity="0.15" stroke="#3498db" stroke-width="1.2"/>
    <text x="238" y="22" text-anchor="middle" font-size="10" font-weight="bold" fill="#3498db">7</text>

    <rect x="266" y="0" width="44" height="36" rx="4" fill="#3498db" fill-opacity="0.15" stroke="#3498db" stroke-width="1.2"/>
    <text x="288" y="22" text-anchor="middle" font-size="10" font-weight="bold" fill="#3498db">156</text>

    <rect x="316" y="0" width="44" height="36" rx="4" fill="#3498db" fill-opacity="0.15" stroke="#3498db" stroke-width="1.2"/>
    <text x="338" y="22" text-anchor="middle" font-size="10" font-weight="bold" fill="#3498db">89</text>

    <rect x="366" y="0" width="44" height="36" rx="4" fill="#3498db" fill-opacity="0.15" stroke="#3498db" stroke-width="1.2"/>
    <text x="388" y="22" text-anchor="middle" font-size="10" font-weight="bold" fill="#3498db">3</text>

    <rect x="416" y="0" width="44" height="36" rx="4" fill="#3498db" fill-opacity="0.15" stroke="#3498db" stroke-width="1.2"/>
    <text x="438" y="22" text-anchor="middle" font-size="10" font-weight="bold" fill="#3498db">211</text>

    <!-- Separator bracket -->
    <text x="472" y="22" text-anchor="middle" font-size="12" fill="#ccc">]</text>

    <!-- More text tokens (red) -->
    <rect x="482" y="0" width="64" height="36" rx="4" fill="#e74c3c" fill-opacity="0.15" stroke="#e74c3c" stroke-width="1.2"/>
    <text x="514" y="22" text-anchor="middle" font-size="10" font-weight="bold" fill="#e74c3c">sitting</text>

    <rect x="552" y="0" width="44" height="36" rx="4" fill="#e74c3c" fill-opacity="0.15" stroke="#e74c3c" stroke-width="1.2"/>
    <text x="574" y="22" text-anchor="middle" font-size="10" font-weight="bold" fill="#e74c3c">on</text>

    <rect x="602" y="0" width="44" height="36" rx="4" fill="#3498db" fill-opacity="0.15" stroke="#3498db" stroke-width="1.2"/>
    <text x="624" y="22" text-anchor="middle" font-size="10" font-weight="bold" fill="#3498db">64</text>

    <text x="658" y="22" font-size="14" fill="#999">...</text>

    <!-- Labels above -->
    <text x="72" y="-8" text-anchor="middle" font-size="9" fill="#e74c3c">text tokens</text>
    <line x1="0" y1="-4" x2="144" y2="-4" stroke="#e74c3c" stroke-width="0.5" stroke-dasharray="2,2"/>

    <text x="310" y="-8" text-anchor="middle" font-size="9" fill="#3498db">image tokens</text>
    <line x1="166" y1="-4" x2="460" y2="-4" stroke="#3498db" stroke-width="0.5" stroke-dasharray="2,2"/>

    <text x="548" y="-8" text-anchor="middle" font-size="9" fill="#e74c3c">text tokens</text>
    <line x1="482" y1="-4" x2="596" y2="-4" stroke="#e74c3c" stroke-width="0.5" stroke-dasharray="2,2"/>
  </g>

  <!-- Arrows flowing down to Transformer -->
  <!-- Multiple arrows from token sequence to transformer -->
  <line x1="100" y1="92" x2="100" y2="128" stroke="#ccc" stroke-width="1"/>
  <line x1="200" y1="92" x2="200" y2="128" stroke="#ccc" stroke-width="1"/>
  <line x1="300" y1="92" x2="300" y2="128" stroke="#ccc" stroke-width="1"/>
  <line x1="400" y1="92" x2="400" y2="128" stroke="#ccc" stroke-width="1"/>
  <line x1="500" y1="92" x2="500" y2="128" stroke="#ccc" stroke-width="1"/>
  <line x1="600" y1="92" x2="600" y2="128" stroke="#ccc" stroke-width="1"/>
  <line x1="700" y1="92" x2="700" y2="128" stroke="#ccc" stroke-width="1"/>

  <!-- Big downward arrow -->
  <path d="M400,92 L400,125" fill="none" stroke="#666" stroke-width="2" marker-end="url(#uArr)"/>

  <!-- Transformer box -->
  <rect x="170" y="132" width="460" height="60" rx="8" fill="#9b59b6" fill-opacity="0.1" stroke="#9b59b6" stroke-width="1.5"/>
  <text x="400" y="160" text-anchor="middle" font-size="14" font-weight="bold" fill="#9b59b6">Transformer</text>
  <text x="400" y="178" text-anchor="middle" font-size="9" fill="#666">shared self-attention over all token types</text>

  <!-- Uniform treatment annotation -->
  <rect x="190" y="204" width="420" height="28" rx="6" fill="#333" fill-opacity="0.04" stroke="#ccc" stroke-width="0.8"/>
  <text x="400" y="222" text-anchor="middle" font-size="10" fill="#333">All tokens (text + image) are processed uniformly in a single sequence</text>

  <!-- Legend -->
  <g transform="translate(250, 238)">
    <rect x="0" y="0" width="14" height="10" rx="2" fill="#e74c3c" fill-opacity="0.15" stroke="#e74c3c" stroke-width="1"/>
    <text x="20" y="9" font-size="9" fill="#666">Text token (from tokeniser)</text>
    <rect x="170" y="0" width="14" height="10" rx="2" fill="#3498db" fill-opacity="0.15" stroke="#3498db" stroke-width="1"/>
    <text x="190" y="9" font-size="9" fill="#666">Image token (from VQ encoder)</text>
  </g>
</svg>